# xmcd
#
# Track frame offsets:
#	150
#	18389
#	33280
#	46069
#	62101
#	75708
#	97161
#	111747
#	123876
#	141143
#	154671
#	173550
#	184040
#	199809
#	214955
#	225851
#
# Disc length: 3129 seconds
#
# Revision: 0
# Processed by: cddbd v1.5.2PL0 Copyright (c) Steve Scherf et al.
# Submitted via: EasyCDDAExtractor 16.0.6.1
#
DISCID=d40c3710
DTITLE=Συλλογικός δίσκος - Τα μεγάλα τραγούδια-Μ. Χατζιδάκις 6
DYEAR=2010
DGENRE=Ποικίλη
TTITLE0=Γιαννάτου Σαβίνα - Θάλασσα πλατιά [Γιώργος Ρούσσος]
TTITLE1=Μητσιάς Μανώλης - Μεθυσμένο καράβι [Νίκος Γκάτσος]
TTITLE2=Αλεξάνδρα - Μυρίζει ο κόσμος γιασεμί [Μιχ. Μπουρμπούλης]
TTITLE3=Βιτάλη Ελένη - Γαρύφαλλο στ' αυτί [Αλέκος Σακελλάριος]
TTITLE4=Ανδρεάτος Γεράσιμος - Ο γκρεμός [Μάνος Χατζιδάκις]
TTITLE5=Μοσχολιού Βίκυ - Είμ' αητός χωρίς φτερά [Ευτ. Παπαγιαννοπούλου]
TTITLE6=Ζορμπαλά Μαργαρίτα - Μιά φορά κι έναν καιρό [Νίκος Γκάτσος]
TTITLE7=Χωματά Καίτη - Το πουλί [Μίνως Αργυράκης]
TTITLE8=Μακεδόνας Κώστας - Κουρασμένο παλληκάρι [Νίκος Γκάτσος]
TTITLE9=Καπαρού Αργυρώ - Δεν μπορεί κανείς να ξέρει [Μάνος Χατζιδάκις]
TTITLE10=Βουγιουκλάκη Αλίκη - Ξημερώνει [Βαγγέλης Γκούφας]
TTITLE11=Μητσιάς Μανώλης - Τα παιδιά της λαταιγίδας [Νίκος Γκάτσος]
TTITLE12=Αρλέτα - Νανούρισμα [F. G. Lorca, απ. Ν. Γκάτσος]
TTITLE13=Αλεξάνδρα - Καϋμός στη χαραυγή [Μιχ. Μπουρμπούλης]
TTITLE14=Ιακωβίδης Αγάθωνας - Αχ, βρε παλιομισοφόρια [Αλέκος Σακελλάριος]
TTITLE15=Άνευ ερμηνευτού - Topkapi (In Prison)[οργ., Νίκος Γκάτσος]
EXTD=
EXTT0=
EXTT1=
EXTT2=
EXTT3=
EXTT4=
EXTT5=
EXTT6=
EXTT7=
EXTT8=
EXTT9=
EXTT10=
EXTT11=
EXTT12=
EXTT13=
EXTT14=
EXTT15=
PLAYORDER=
